<svg id="visual" viewBox="0 0 960 540" width="960" height="540" xmlns="http://www.w3.org/2000/svg" xmlns:xlink="http://www.w3.org/1999/xlink" version="1.1"><rect x="0" y="0" width="960" height="540" fill="#0c0c0c"></rect><path d="M0 465L17.8 458.2C35.7 451.3 71.3 437.7 106.8 440.7C142.3 443.7 177.7 463.3 213.2 468.5C248.7 473.7 284.3 464.3 320 456C355.7 447.7 391.3 440.3 426.8 438.5C462.3 436.7 497.7 440.3 533.2 449.8C568.7 459.3 604.3 474.7 640 478.7C675.7 482.7 711.3 475.3 746.8 471C782.3 466.7 817.7 465.3 853.2 457.3C888.7 449.3 924.3 434.7 942.2 427.3L960 420L960 541L942.2 541C924.3 541 888.7 541 853.2 541C817.7 541 782.3 541 746.8 541C711.3 541 675.7 541 640 541C604.3 541 568.7 541 533.2 541C497.7 541 462.3 541 426.8 541C391.3 541 355.7 541 320 541C284.3 541 248.7 541 213.2 541C177.7 541 142.3 541 106.8 541C71.3 541 35.7 541 17.8 541L0 541Z" fill="#c40233" stroke-linecap="round" stroke-linejoin="miter"></path></svg>